<svg xmlns="http://www.w3.org/2000/svg" width="1557" height="300" fill="none"><style>:root { --primary : #ffffff; }</style><g clip-path="url(#a)"><path stroke="#99989D" stroke-width=".75" d="M0 185.143h1556.48"/><path fill="#4C759F" fill-rule="evenodd" d="M282.841 1.815h44.768v39.823h20.933V1.815h44.767v117.943h-44.767V75.697h-20.933v44.061h-44.768V1.815zm550.29 117.943h44.786v-42.74c1.433-.131 2.946-.131 4.096-.131 10.75 0 12.227 5.022 14.032 17.739l1.159 8.75c.672 5.287 1.964 10.663 3.468 16.382h45.378c-1.964-8.724-3.45-15.739-4.131-21l-1.478-12.601c-2.132-16.99-5.954-24.216-21.941-26.877 15.527-4.107 23.419-13.245 23.419-27.494 0-23.582-15.333-29.962-48.024-29.962h-60.764v117.934zm44.786-69.282V28.2c1.911-.185 3.609-.185 5.087-.185 10.068 0 14.51 3.128 14.51 10.478 0 7.534-5.592 12.073-16.324 12.073-1 0-2.176 0-3.273-.097v.008zM1054.09 81.91v.952c0 8.063 3.62 11.773 11.35 11.773 6.99 0 11.1-3.401 11.1-8.46 0-3.789-1.66-6.714-4.66-8.168-6.1-2.97-16.83-4.635-30.84-9.068-19.16-6.054-28.09-15.36-28.09-31.892 0-23.114 18.85-37.046 53.5-37.046 31.51 0 48.17 11.623 48.17 32.42v2.468h-39.42c-.52-7.05-3.78-10.47-10.39-10.47-6.11 0-9.91 3.42-9.91 7.852 0 8.24 8.26 7.896 23.28 12.003 27.6 7.296 40.78 14.84 40.78 36.262 0 24.965-20.13 41.179-54.5 41.179-34.83 0-53.33-13.051-53.33-35.548 0-1.296 0-2.732.2-4.257h42.76zM475.891 1.816h88.961v30.27h-44.061V44.89h40.929v30.306h-40.929v13.923h45.538v30.631h-90.438V1.815zm802.889 31.442h-28.57v86.492h-45.85V33.257h-28.76V1.824h103.18v31.433zm-647.865 86.695h45.113l4.379-18.894h34.549l4.123 18.894h49.033L730.643 1.815h-60.428l-39.3 118.137zm77.565-47.657h-21.11l10.944-46.581 10.166 46.581z" clip-rule="evenodd"/><path fill="#99989D" fill-rule="evenodd" d="m144.304 249.426 6.244 10.043 1.801 2.949a262.158 262.158 0 0 1 4.045 6.838 83.286 83.286 0 0 0 1.51 2.533h.15c.477-.852.965-1.696 1.466-2.533 1.956-3.267 3.919-6.53 5.89-9.787l6.182-10.043h9.997l-19.34 29.342v20.37h-8.902v-20.3l-19.64-29.412h10.597zm85.237-.859c3.683 0 7.021.602 10.041 1.815 3.011 1.213 5.59 2.923 7.718 5.137 2.137 2.205 3.78 4.871 4.928 8.006 1.148 3.136 1.731 6.643 1.731 10.54 0 3.985-.583 7.59-1.766 10.796a22.666 22.666 0 0 1-5.034 8.148 22.324 22.324 0 0 1-7.868 5.172 27.923 27.923 0 0 1-10.333 1.816c-3.779 0-7.197-.602-10.261-1.816a22.565 22.565 0 0 1-7.878-5.137 22.422 22.422 0 0 1-5.033-8.041 30.299 30.299 0 0 1-1.766-10.646c0-4.039.591-7.652 1.766-10.832 1.174-3.188 2.87-5.88 5.078-8.086 2.207-2.214 4.874-3.897 8.009-5.092a29.953 29.953 0 0 1 10.668-1.78zm-.591 6.766c-2.297 0-4.381.452-6.244 1.355a14.366 14.366 0 0 0-4.857 3.844 17.619 17.619 0 0 0-3.162 5.987 25.698 25.698 0 0 0-1.103 7.767c0 2.843.362 5.447 1.103 7.794.733 2.356 1.784 4.34 3.162 5.987a14.412 14.412 0 0 0 4.892 3.808c1.881.904 4.01 1.355 6.359 1.355 2.26 0 4.327-.451 6.217-1.355 1.89-.903 3.514-2.187 4.892-3.843 1.369-1.665 2.429-3.658 3.162-5.987.733-2.33 1.103-4.916 1.103-7.759a26.29 26.29 0 0 0-1.103-7.882 17.53 17.53 0 0 0-3.127-5.978 13.609 13.609 0 0 0-4.892-3.773 15.15 15.15 0 0 0-6.402-1.32zm96.576 23.009c0 6.793-1.696 12.099-5.078 15.925-3.383 3.817-8.575 5.73-15.587 5.73-3.78 0-6.959-.514-9.529-1.532a15.104 15.104 0 0 1-6.217-4.384 17.404 17.404 0 0 1-3.382-6.838 35.577 35.577 0 0 1-1.024-8.901v-28.916h8.972v28.208c0 2.418.194 4.588.583 6.51.397 1.93 1.033 3.551 1.916 4.88a8.562 8.562 0 0 0 3.488 3.028c1.449.691 3.25 1.037 5.414 1.037 2.207 0 4.053-.346 5.546-1.037a8.883 8.883 0 0 0 3.647-3.028c.927-1.329 1.589-2.95 1.978-4.872.414-2.147.612-4.331.592-6.518v-28.208h8.681v28.916zm66.85-28.916h8.169v49.712h-11.401l-15.595-28.279-1.873-3.49a96.522 96.522 0 0 1-1.872-3.667 272.903 272.903 0 0 1-1.66-3.454 80.97 80.97 0 0 1-1.289-2.851h-.142c.132 2.371.221 4.745.265 7.12l.062 4.313c.027 1.453.035 2.702.035 3.738v26.57h-8.23v-49.712h12.416l15.084 27.987c.485.903 1.015 1.913 1.58 3.028l1.723 3.419a100.468 100.468 0 0 1 1.66 3.419l1.36 2.958h.141a176.15 176.15 0 0 1-.141-3.56l-.15-4.668a329.8 329.8 0 0 1-.15-9.007v-23.576h.008zm81.352 9.68a25.78 25.78 0 0 0-6.217-2.276 30.944 30.944 0 0 0-7.242-.859c-2.896 0-5.528.434-7.912 1.284-2.376.859-4.416 2.081-6.094 3.666a16.465 16.465 0 0 0-3.938 5.74 19.248 19.248 0 0 0-1.405 7.475c0 2.754.442 5.26 1.325 7.519.883 2.258 2.146 4.18 3.797 5.765 1.634 1.595 3.621 2.817 5.953 3.676 2.331.85 4.945 1.275 7.833 1.275a40.71 40.71 0 0 0 3.417-.141 20.49 20.49 0 0 0 3.418-.567v-13.462h-10.951v-6.908h19.561v25.923a54.617 54.617 0 0 1-8.124 1.86 56.22 56.22 0 0 1-8.063.567c-4.115 0-7.86-.594-11.251-1.781a25.242 25.242 0 0 1-8.743-5.136 22.996 22.996 0 0 1-5.704-8.078 26.854 26.854 0 0 1-2.032-10.654c0-3.8.707-7.236 2.102-10.327 1.396-3.082 3.356-5.721 5.882-7.909a26.726 26.726 0 0 1 9.087-5.048c3.532-1.196 7.427-1.789 11.692-1.789 2.499 0 4.928.159 7.286.469 2.349.301 4.68.886 6.976 1.745l-.653 7.971zm106.422 5.42c-.168-.656-.339-1.311-.512-1.966a42.006 42.006 0 0 1-.547-2.347l-.522-2.418a32.76 32.76 0 0 1-.406-2.179h-.141a107.017 107.017 0 0 1-1.766 8.91l-8.61 34.612h-11.322l-14.862-49.712h9.564l8.53 31.556c.401 1.734.807 3.467 1.219 5.199.265 1.133.512 2.285.733 3.454l.547 2.878h.151l.591-2.878c.468-2.199.945-4.395 1.431-6.59l.477-2.063 7.647-31.556h12.143l7.948 31.556a952.08 952.08 0 0 1 1.166 5.269c.247 1.134.485 2.277.706 3.419l.548 2.843h.15c.141-.753.344-1.709.583-2.843l.741-3.419c.239-1.142.477-2.187.698-3.135.221-.947.398-1.665.548-2.134l8.46-31.556h9.043l-14.854 49.712h-11.18l-8.902-34.612zm85.396-15.959c3.674 0 7.021.602 10.041 1.815 3.011 1.213 5.59 2.923 7.718 5.137 2.137 2.205 3.78 4.871 4.928 8.006 1.148 3.136 1.731 6.643 1.731 10.54 0 3.985-.592 7.59-1.766 10.796a22.666 22.666 0 0 1-5.034 8.148 22.323 22.323 0 0 1-7.877 5.172 27.92 27.92 0 0 1-10.333 1.816c-3.77 0-7.197-.602-10.261-1.816a22.559 22.559 0 0 1-7.86-5.137 22.414 22.414 0 0 1-5.042-8.041 30.299 30.299 0 0 1-1.766-10.646c0-4.039.582-7.652 1.766-10.832 1.174-3.188 2.861-5.88 5.069-8.086 2.208-2.214 4.883-3.897 8.018-5.092a29.953 29.953 0 0 1 10.668-1.78zm-.592 6.766c-2.296 0-4.389.452-6.252 1.355a14.375 14.375 0 0 0-4.857 3.844 17.616 17.616 0 0 0-3.161 5.987 25.668 25.668 0 0 0-1.104 7.767c0 2.843.371 5.447 1.104 7.794.741 2.356 1.792 4.34 3.161 5.987a14.499 14.499 0 0 0 4.892 3.808c1.89.904 4.01 1.355 6.359 1.355 2.261 0 4.327-.451 6.226-1.355a14.339 14.339 0 0 0 4.883-3.843c1.378-1.665 2.429-3.658 3.162-5.987.742-2.33 1.104-4.916 1.104-7.759a26.29 26.29 0 0 0-1.104-7.882 17.518 17.518 0 0 0-3.118-5.978 13.609 13.609 0 0 0-4.892-3.773 15.15 15.15 0 0 0-6.403-1.32zm80.831 21.938c.291.806.618 1.745.954 2.816.353 1.063.706 2.17 1.068 3.313.371 1.142.724 2.276 1.069 3.418.344 1.143.635 2.188.883 3.135h.15c.322-1.043.64-2.088.954-3.135.966-3.211 2.02-6.395 3.161-9.547l10.156-27.845h13.97v49.712h-8.53v-31.769c0-1.24.009-2.524.035-3.879l.071-4.092c.026-1.381.061-2.657.114-3.852h-.15l-1.104 3.276a253.225 253.225 0 0 1-1.174 3.49l-1.104 3.241a41.342 41.342 0 0 1-.954 2.604l-11.842 30.981h-8.169l-11.621-30.414a117.057 117.057 0 0 1-3.383-9.972l-.953-3.206h-.151c.114 2.646.165 5.295.151 7.944v35.648h-8.24v-49.712h14.342l10.297 27.845zm96.055 21.876h-29.858v-49.721h29.416v7.191h-20.594v13.462h19.049v6.979h-19.049v14.888h21.036v7.201zm65.535-49.721h8.16v49.712h-11.392l-15.596-28.279-1.881-3.49a130.194 130.194 0 0 1-1.872-3.667 268.32 268.32 0 0 1-1.652-3.454 84.803 84.803 0 0 1-1.289-2.851h-.15c.132 2.371.22 4.745.265 7.12l.071 4.313c.026 1.453.035 2.702.035 3.738v26.57h-8.239v-49.712h12.434l15.074 27.987c.495.903 1.016 1.913 1.59 3.028l1.722 3.419a117.495 117.495 0 0 1 1.651 3.419l1.36 2.958h.15a176.186 176.186 0 0 1-.15-3.56l-.141-4.668a329.8 329.8 0 0 1-.15-9.007v-23.576zm45.824 14.524h-6.844l4.557-17.093h8.61l-6.323 17.093zm62.291-6.412a26.547 26.547 0 0 0-5.3-1.674 25.042 25.042 0 0 0-4.7-.46c-2.74 0-4.95.584-6.582 1.745a5.308 5.308 0 0 0-2.472 4.516 6.8 6.8 0 0 0 .37 2.25 5.277 5.277 0 0 0 1.44 2.037c.706.664 1.678 1.329 2.904 1.993 1.23.664 2.83 1.373 4.78 2.134 4.61 1.754 7.95 3.773 10 6.058 2.06 2.276 3.1 5.172 3.1 8.68 0 2.285-.45 4.366-1.33 6.244a13.556 13.556 0 0 1-3.71 4.764c-1.6 1.311-3.53 2.33-5.78 3.065a24.401 24.401 0 0 1-7.57 1.107c-2.23.01-4.456-.155-6.659-.496a31.274 31.274 0 0 1-6.147-1.639l.883-7.696a24.862 24.862 0 0 0 11.333 2.781c2.94 0 5.33-.62 7.17-1.86a5.963 5.963 0 0 0 2.07-2.227c.48-.91.72-1.932.68-2.963.02-.922-.13-1.84-.44-2.71a5.92 5.92 0 0 0-1.58-2.276 14.624 14.624 0 0 0-3.05-2.108 43.128 43.128 0 0 0-4.85-2.17 38.12 38.12 0 0 1-5.964-2.816 16.62 16.62 0 0 1-3.929-3.171 10.724 10.724 0 0 1-2.173-3.667 13.872 13.872 0 0 1-.662-4.454c0-2.082.415-3.995 1.254-5.731a12.41 12.41 0 0 1 3.532-4.419 16.59 16.59 0 0 1 5.511-2.808c2.155-.664 4.541-1 7.131-1 2.06 0 4.04.141 5.92.425 1.89.283 3.8.761 5.71 1.426l-.89 7.12zm112.1 1.568a25.864 25.864 0 0 0-6.22-2.276c-2.37-.571-4.8-.859-7.24-.859-2.9 0-5.53.434-7.92 1.284a16.38 16.38 0 0 0-6.04 3.599 16.446 16.446 0 0 0-4 5.807 19.315 19.315 0 0 0-1.39 7.475c0 2.754.44 5.26 1.32 7.519.89 2.258 2.15 4.18 3.79 5.765 1.64 1.595 3.62 2.817 5.96 3.676 2.32.85 4.94 1.275 7.83 1.275 1.13 0 2.27-.044 3.42-.141 1.15-.089 2.3-.284 3.42-.567v-13.462h-10.95v-6.908h19.56v25.923a54.68 54.68 0 0 1-8.12 1.86c-2.67.382-5.37.572-8.07.567-4.11 0-7.86-.594-11.25-1.781a25.25 25.25 0 0 1-8.75-5.136 22.973 22.973 0 0 1-5.7-8.078 26.84 26.84 0 0 1-2.03-10.654c0-3.8.71-7.236 2.11-10.327 1.39-3.082 3.35-5.721 5.88-7.909a26.77 26.77 0 0 1 9.08-5.048c3.54-1.196 7.42-1.789 11.7-1.789 2.5 0 4.92.159 7.27.469 2.36.301 4.68.886 7 1.745l-.66 7.971zm34.56-9.68h13.83c3.13 0 5.97.212 8.49.637 2.53.425 4.68 1.143 6.48 2.135 1.78 1.001 3.16 2.329 4.11 3.985.96 1.665 1.44 3.755 1.44 6.271 0 3.374-1.02 5.996-3.05 7.882-2.03 1.86-4.75 3.135-8.13 3.808v.142c1.77.514 3.14 1.329 4.12 2.418.98 1.089 1.89 2.542 2.72 4.34l8.31 18.094h-9.86l-6.54-14.959c-.45-1.093-.98-2.15-1.59-3.162a6.302 6.302 0 0 0-2-2.064 6.293 6.293 0 0 0-2.7-.965c-1.4-.211-2.81-.305-4.23-.283h-2.5v21.433h-8.9v-49.712zm8.9 21.433h3.31c4.31 0 7.56-.558 9.74-1.674 2.18-1.116 3.27-3.02 3.27-5.731a6.648 6.648 0 0 0-.88-3.595 5.717 5.717 0 0 0-2.54-2.135c-1.3-.551-2.67-.9-4.08-1.036a47.625 47.625 0 0 0-5.51-.283h-3.31v14.454zm80.32-22.292c3.67 0 7.02.602 10.03 1.815 3.02 1.213 5.59 2.923 7.73 5.137 2.13 2.205 3.77 4.871 4.93 8.006 1.14 3.136 1.73 6.643 1.73 10.54 0 3.985-.59 7.59-1.77 10.796a22.642 22.642 0 0 1-5.03 8.148 22.362 22.362 0 0 1-7.88 5.172 27.9 27.9 0 0 1-10.33 1.816c-3.78 0-7.2-.602-10.26-1.816a22.452 22.452 0 0 1-7.87-5.137 22.509 22.509 0 0 1-5.04-8.041 30.385 30.385 0 0 1-1.76-10.646c0-4.039.58-7.652 1.76-10.832 1.18-3.188 2.87-5.88 5.07-8.086 2.21-2.214 4.89-3.897 8.02-5.092a29.978 29.978 0 0 1 10.67-1.78zm-.59 6.766c-2.31 0-4.39.452-6.25 1.355a14.347 14.347 0 0 0-4.86 3.844 17.492 17.492 0 0 0-3.16 5.987 25.549 25.549 0 0 0-1.11 7.767c0 2.843.37 5.447 1.11 7.794.74 2.356 1.79 4.34 3.16 5.987 1.38 1.638 3 2.905 4.89 3.808 1.89.904 4.01 1.355 6.36 1.355 2.26 0 4.33-.451 6.22-1.355 1.89-.903 3.52-2.187 4.89-3.843 1.38-1.665 2.43-3.658 3.16-5.987.74-2.33 1.1-4.916 1.1-7.759.04-2.668-.33-5.326-1.1-7.882a17.59 17.59 0 0 0-3.13-5.978 13.652 13.652 0 0 0-4.88-3.773 15.143 15.143 0 0 0-6.4-1.32zm96.56 23.009c0 6.793-1.68 12.099-5.06 15.925-3.39 3.817-8.59 5.73-15.6 5.73-3.78 0-6.95-.514-9.53-1.532a15.133 15.133 0 0 1-6.21-4.384 17.4 17.4 0 0 1-3.38-6.838 35.582 35.582 0 0 1-1.03-8.901v-28.916h8.97v28.208c0 2.418.19 4.588.59 6.51.39 1.93 1.03 3.551 1.91 4.88a8.507 8.507 0 0 0 3.5 3.028c1.44.691 3.25 1.037 5.4 1.037 2.21 0 4.06-.346 5.56-1.037 1.5-.69 2.71-1.691 3.63-3.028.94-1.329 1.59-2.95 1.99-4.872.42-2.147.61-4.331.59-6.518v-28.208h8.67v28.916zm45.68-28.916c2.9 0 5.63.212 8.2.637 2.58.425 4.82 1.196 6.73 2.312 1.92 1.116 3.44 2.657 4.56 4.632 1.13 1.975 1.69 4.472 1.69 7.519 0 2.985-.57 5.474-1.73 7.44a12.577 12.577 0 0 1-4.67 4.667c-1.96 1.143-4.21 1.949-6.76 2.418-2.55.478-5.22.709-8.02.709h-3.45v19.378h-8.91v-49.712h12.37-.01zm-3.45 23.505h2.79c1.97 0 3.74-.124 5.33-.354 1.59-.239 2.96-.673 4.08-1.284a6.315 6.315 0 0 0 2.58-2.569c.63-1.281.93-2.699.88-4.127a8.51 8.51 0 0 0-.85-4.03 6.346 6.346 0 0 0-2.49-2.568 11.833 11.833 0 0 0-4.05-1.346c-1.59-.266-3.44-.39-5.55-.39h-2.72v16.668z" clip-rule="evenodd"/></g><defs><clipPath id="a"><path fill="#fff" d="M0 0h1556.48v300H0z"/></clipPath></defs></svg>