<svg viewBox="0 0 478 542" xmlns="http://www.w3.org/2000/svg"><style>:root { --id : social-button-icon;--primary : #000000; }</style><title>Pinterest Icon</title><desc>Pinterest Icon</desc><path d="M250.279 38.315c-59.776 0-106.018 16.917-140.988 51.88-33.835 34.97-50.755 73.316-50.755 115.046 0 48.506 19.174 87.983 55.263 102.645 6.772 2.25 11.278 0 13.537-6.771 0-3.383 4.511-18.047 4.511-21.43 1.13-5.638 0-10.151-3.383-14.664-12.406-14.661-18.047-31.58-18.047-53.008 0-71.064 54.137-128.586 131.97-128.586 71.06 0 111.661 42.86 111.661 102.64 0 80.084-34.964 142.119-84.596 142.119-28.192 0-48.495-23.688-42.857-50.758 7.898-27.068 23.684-77.825 23.684-94.744 0-23.69-12.403-40.603-36.093-40.603-28.2 0-51.88 29.328-51.88 68.804 0 14.66 3.383 31.579 6.765 37.219l2.255 5.643-33.837 145.496c-6.768 25.94-6.768 59.778-1.126 101.51 0 3.385 4.51 3.385 5.642 2.26 25.936-32.708 41.732-62.034 48.498-87.984 12.404-46.235 19.173-69.924 19.173-73.31 9.018 18.048 37.22 32.708 65.42 32.708 41.734 0 76.695-16.92 103.769-51.88 27.065-34.967 40.6-77.828 40.6-130.84 0-41.73-15.788-76.695-48.491-107.144-31.587-30.461-72.19-46.248-120.695-46.248" style="fill:var(--primary, #000000)" fill-rule="evenodd"/></svg>