<svg viewBox="0 0 643 542" xmlns="http://www.w3.org/2000/svg"><style>:root { --id : social-button-icon;--primary : #000000; }</style><title>Twitter Icon</title><desc>Twitter Icon</desc><path style="fill:var(--primary, #000000)" d="M573.115 114.828c-18.596 8.68-38.426 13.633-59.5 16.117 22.312-13.637 37.183-32.23 44.622-57.018-19.827 12.393-40.906 21.07-64.45 26.03-21.073-22.313-45.861-33.472-75.612-33.472-58.26 0-102.877 45.864-102.877 104.122 0 7.435 1.24 14.867 2.478 22.305-84.28-3.715-161.135-43.382-211.944-106.594-9.922 16.112-14.876 32.224-14.876 50.817 0 37.188 14.876 65.692 45.865 86.767-16.12-1.242-32.231-4.96-45.865-13.633v1.232c0 49.58 35.94 91.727 81.81 101.641-8.685 2.478-17.361 3.714-27.272 3.714-6.202 0-12.393-1.236-18.599-2.476 13.635 40.903 52.057 70.651 96.678 71.892-38.415 28.507-80.558 43.382-128.899 43.382-8.675 0-16.116 0-24.789-1.238 48.341 30.98 101.633 47.1 158.654 47.1 189.636 0 292.512-157.412 292.512-293.757v-13.633c21.077-13.632 38.42-32.225 52.063-53.299" fill-rule="evenodd"/></svg>